<svg xmlns="http://www.w3.org/2000/svg" viewBox="0 0 24 24"><path fill="none" stroke="black" stroke-width=".3" stroke-opacity="1.0" filling="0" d="M14.3 11.5 L14.3 11.5 C14.1 12.7 14.0 13.9 13.9 15.1 L13.9 15.1 C12.4 15.3 11.2 15.4 9.7 15.6 L9.7 15.6 C9.5 14.1 9.4 12.8 9.4 11.4 C9.4 10.0 9.5 8.6 9.6 7.1 L9.6 7.1 C11.3 7.4 13.1 7.4 14.8 7.4 L14.8 7.4 C14.9 6.7 15.1 6.2 15.2 5.5 L15.2 5.5 C15.3 6.7 15.3 7.9 15.3 9.3 C15.3 10.6 15.2 11.9 15.2 13.1 L15.2 13.1 C15.9 12.9 16.7 12.8 17.5 12.8 L17.5 12.8 C17.7 13.2 17.8 13.5 18.0 13.8 L18.0 13.8 C17.3 13.7 16.5 13.7 15.8 13.8 L15.8 13.8 C15.6 15.4 15.4 16.9 15.2 18.5 C15.0 20.1 14.8 21.6 14.6 23.2 L14.6 23.2 C12.3 23.2 10.3 22.9 8.1 22.3 L8.1 22.3 C8.2 20.3 8.2 18.5 8.2 16.6 L8.2 16.6 C10.0 16.6 11.8 16.7 13.5 16.7 L13.5 16.7 C13.5 15.9 13.7 15.0 13.8 14.1 L13.8 14.1 C13.8 14.1 13.8 14.1 13.8 14.1 L13.8 14.1 C13.6 12.3 13.9 10.6 14.3 8.8 L14.3 8.8 C13.5 8.8 12.6 8.8 11.8 8.8 L11.8 8.8 C11.8 10.7 11.9 12.4 11.9 14.2 L11.9 14.2 C12.9 14.1 13.7 13.9 14.6 13.7 L14.6 13.7 C14.6 12.6 14.5 11.7 14.5 10.6 L14.5 10.6 C14.5 10.8 14.4 11.1 14.3 11.5 L14.3 11.5"></path></svg>