<svg xmlns="http://www.w3.org/2000/svg" viewBox="0 0 24 24"><path fill="none" stroke="black" stroke-width=".3" stroke-opacity="1.0" filling="0" d="M15.5 12.8 L15.5 12.8 C15.2 13.9 14.4 14.8 13.6 15.4 L13.6 15.4 C14.2 16.1 14.7 16.9 15.1 17.8 L15.1 17.8 C14.0 19.1 13.8 19.9 12.3 20.6 C11.2 21.1 7.9 22.7 8.2 20.1 C8.3 19.6 8.5 19.1 8.7 18.7 C9.3 17.6 10.4 16.8 11.4 16.0 L11.4 16.0 C10.4 15.2 9.5 14.2 9.1 13.0 C8.9 12.0 9.2 10.8 9.9 9.8 C10.8 8.3 12.9 7.6 14.1 9.0 C14.9 9.7 15.1 11.4 15.5 12.8 L15.5 12.8"></path> <path fill="none" stroke="black" stroke-width=".3" stroke-opacity="1.0" filling="0" d="M11.4 17.3 L11.4 17.3 C10.5 16.8 9.6 16.1 9.1 15.0 C8.4 13.5 8.9 10.4 10.0 9.3 C11.0 8.2 12.5 8.2 13.5 8.9 C14.5 9.6 15.0 10.9 14.7 12.3 C14.3 14.4 12.6 15.9 11.4 17.3 L11.4 17.3"></path> <path fill="none" stroke="black" stroke-width=".3" stroke-opacity="1.0" filling="0" d="M11.8 17.6 L11.8 17.6 C11.7 17.5 11.5 17.4 11.3 17.3 L11.3 17.3 C11.6 17.0 11.8 16.8 12.1 16.5 L12.1 16.5 C12.4 16.8 12.7 17.0 12.9 17.3 L12.9 17.3 C12.0 18.4 12.3 19.5 11.0 20.4 C9.8 21.2 6.3 22.3 7.5 19.4 C7.8 19.0 8.1 18.6 8.4 18.2 C8.8 17.6 9.3 17.1 9.8 16.6 L9.8 16.6 C9.3 16.0 8.7 15.5 8.3 14.8 C7.9 14.2 7.1 13.4 7.2 12.6 C7.1 11.3 7.9 9.9 8.9 9.0 C10.0 8.0 11.4 7.5 12.9 8.2 C13.9 8.7 14.7 10.0 14.8 11.3 C14.9 12.6 14.4 13.8 13.6 14.6 C13.1 15.3 12.3 15.7 11.7 16.3 L11.7 16.3 C12.1 16.7 12.4 17.0 12.8 17.3 L12.8 17.3 C12.5 17.4 12.3 17.5 12.1 17.6 L12.1 17.6 C12.0 17.6 11.9 17.6 11.8 17.6 L11.8 17.6"></path></svg>