<svg xmlns="http://www.w3.org/2000/svg" viewBox="0 0 24 24"><path fill="none" stroke="black" stroke-width=".3" stroke-opacity="1.0" filling="0" d="M11.4 10.1 L11.4 10.1 C11.4 10.2 11.4 10.3 11.4 10.4 L11.4 10.4 C11.4 10.4 11.4 10.4 11.4 10.4 L11.4 10.4 C11.4 10.4 11.4 10.4 11.4 10.4 L11.4 10.4 C11.4 10.3 11.4 10.2 11.4 10.1 L11.4 10.1"></path> <path fill="none" stroke="black" stroke-width=".3" stroke-opacity="1.0" filling="0" d="M14.0 10.1 L14.0 10.1 C14.0 10.2 14.0 10.3 14.0 10.4 L14.0 10.4 C14.0 10.4 14.0 10.4 14.0 10.4 L14.0 10.4 C14.0 10.3 14.0 10.2 14.0 10.1 L14.0 10.1"></path> <path fill="none" stroke="black" stroke-width=".3" stroke-opacity="1.0" filling="0" d="M15.0 10.1 L15.0 10.1 C15.0 10.2 15.0 10.3 15.0 10.4 L15.0 10.4 C15.0 10.4 15.0 10.4 15.0 10.4 L15.0 10.4 C15.0 10.3 15.0 10.2 15.0 10.1 L15.0 10.1"></path> <path fill="none" stroke="black" stroke-width=".3" stroke-opacity="1.0" filling="0" d="M15.8 10.1 L15.8 10.1 C15.8 10.2 15.8 10.3 15.8 10.4 L15.8 10.4 C15.8 10.4 15.8 10.4 15.8 10.4 L15.8 10.4 C15.8 10.3 15.8 10.2 15.8 10.1 L15.8 10.1"></path> <path fill="none" stroke="black" stroke-width=".3" stroke-opacity="1.0" filling="0" d="M11.5 10.4 L11.5 10.4 C11.5 10.4 11.5 10.4 11.5 10.4 L11.5 10.4 C11.5 10.4 11.5 10.4 11.5 10.4 L11.5 10.4"></path> <path fill="none" stroke="black" stroke-width=".3" stroke-opacity="1.0" filling="0" d="M14.3 10.4 L14.3 10.4 C14.3 10.4 14.3 10.4 14.3 10.4 L14.3 10.4 C14.3 10.4 14.3 10.4 14.3 10.4 L14.3 10.4"></path> <path fill="none" stroke="black" stroke-width=".3" stroke-opacity="1.0" filling="0" d="M15.3 10.4 L15.3 10.4 C15.3 10.4 15.3 10.4 15.3 10.4 L15.3 10.4 C15.3 10.4 15.3 10.4 15.3 10.4 L15.3 10.4"></path></svg>