<svg xmlns="http://www.w3.org/2000/svg" viewBox="0 0 24 24"><path fill="none" stroke="black" stroke-width=".3" stroke-opacity="1.0" filling="0" d="M9.0 7.4 L9.0 7.4 C9.7 7.7 10.5 7.8 11.2 8.1 L11.2 8.1 C11.7 7.8 12.3 7.5 12.8 7.4 C14.7 7.2 16.3 8.6 17.1 10.2 C17.8 11.8 17.6 13.8 16.3 15.0 C15.2 16.2 13.8 16.4 12.4 16.3 C11.0 16.2 9.6 15.6 8.5 14.8 C7.5 14.0 6.8 12.8 6.8 11.4 C6.8 9.7 8.0 8.3 9.0 7.4 L9.0 7.4"></path> <path fill="none" stroke="black" stroke-width=".3" stroke-opacity="1.0" filling="0" d="M9.6 9.0 L9.6 9.0 C10.5 9.1 11.4 9.4 12.3 9.8 L12.3 9.8 C12.7 9.6 13.1 9.5 13.5 9.4 L13.5 9.4 C14.0 9.3 14.4 9.1 14.8 9.0 L14.8 9.0 C15.2 9.3 15.8 9.5 16.0 9.9 C16.3 10.3 16.1 10.9 16.2 11.4 L16.2 11.4 C16.0 11.7 16.0 12.2 15.7 12.3 C15.4 12.3 15.4 11.7 15.3 11.4 L15.3 11.4 C14.8 12.0 14.0 12.6 13.1 12.8 L13.1 12.8 C12.4 12.6 11.6 12.0 11.0 11.4 L11.0 11.4 C10.6 12.0 9.8 12.6 9.1 12.8 L9.1 12.8 C8.9 12.6 8.7 12.3 8.5 12.3 L8.5 12.3 C8.3 12.0 8.2 11.7 8.0 11.4 L8.0 11.4 C7.8 11.7 7.8 12.3 7.4 12.3 C7.1 12.3 7.0 11.7 6.7 11.4 L6.7 11.4 C6.7 10.9 6.4 10.3 6.7 9.9 C7.0 9.5 7.5 9.3 8.0 9.0 L8.0 9.0 C8.5 9.1 9.0 9.3 9.6 9.4 L9.6 9.4 C9.6 9.2 9.6 9.1 9.6 9.0 L9.6 9.0"></path></svg>