<svg xmlns="http://www.w3.org/2000/svg" viewBox="0 0 24 24"><path fill="none" stroke="black" stroke-width=".3" stroke-opacity="1.0" filling="0" d="M10.9 5.9 L10.9 5.9 C11.0 5.9 11.0 5.9 11.1 5.9 L11.1 5.9 C11.1 6.0 11.1 6.0 11.1 6.0 L11.1 6.0 C10.9 5.9 10.8 5.9 10.7 5.9 L10.7 5.9 C10.8 5.9 10.8 5.9 10.9 5.9 L10.9 5.9"></path> <path fill="none" stroke="black" stroke-width=".3" stroke-opacity="1.0" filling="0" d="M10.9 7.3 L10.9 7.3 C11.0 7.3 11.0 7.3 11.1 7.4 L11.1 7.4 C10.8 7.3 10.4 7.2 10.4 7.0 C10.4 6.8 10.8 6.9 10.9 7.0 L10.9 7.3"></path> <path fill="none" stroke="black" stroke-width=".3" stroke-opacity="1.0" filling="0" d="M10.9 8.7 L10.9 8.7 C11.0 8.7 11.0 8.7 11.1 8.7 L11.1 8.7 C10.9 8.7 10.8 8.7 10.6 8.7 L10.6 8.7 C10.8 8.6 10.9 8.6 10.9 8.7 L10.9 8.7"></path> <path fill="none" stroke="black" stroke-width=".3" stroke-opacity="1.0" filling="0" d="M10.9 10.9 L10.9 10.9 C13.0 11.1 15.2 11.4 17.0 13.0 C19.1 14.9 19.6 17.4 18.8 19.4 C18.0 21.3 16.0 22.9 13.3 23.1 C12.4 23.2 11.8 23.2 10.9 23.1 C8.9 22.9 7.3 21.4 6.4 19.6 C5.5 17.8 5.5 15.7 7.8 14.3 C8.9 13.7 10.0 13.4 10.9 13.4 C12.1 13.4 13.1 13.7 14.1 14.3 C14.1 14.3 14.2 13.8 14.2 13.7 C14.2 13.2 14.0 12.7 14.0 12.2 C14.0 11.7 14.1 11.1 14.2 10.6 C14.2 10.6 14.0 8.9 14.4 8.7 C14.8 8.4 15.4 8.4 15.8 8.4 C16.2 8.4 16.7 8.4 17.1 8.4 C17.5 8.3 18.0 7.9 18.1 8.2 C18.2 8.5 17.8 8.9 17.5 9.2 C17.0 9.7 16.5 9.8 15.8 9.9 C15.4 10.0 14.8 10.0 14.4 10.1 C14.1 10.2 14.4 10.7 14.2 10.8 C13.7 11.4 13.1 11.8 12.4 11.8 C10.7 11.8 10.0 10.9 10.9 10.9 L10.9 10.9"></path></svg>