<svg xmlns="http://www.w3.org/2000/svg" viewBox="0 0 24 24"><path fill="none" stroke="black" stroke-width=".3" stroke-opacity="1.0" filling="0" d="M9.9 10.6 L9.9 10.6"></path> <path fill="none" stroke="black" stroke-width=".3" stroke-opacity="1.0" filling="0" d="M14.3 10.6 L14.3 10.6"></path> <path fill="none" stroke="black" stroke-width=".3" stroke-opacity="1.0" filling="0" d="M7.1 12.2 L7.1 12.2 C7.9 12.3 8.7 12.3 9.5 12.2 L9.5 12.2"></path> <path fill="none" stroke="black" stroke-width=".3" stroke-opacity="1.0" filling="0" d="M14.3 12.2 L14.3 12.2 C15.3 12.3 16.3 12.3 17.3 12.2 L17.3 12.2"></path> <path fill="none" stroke="black" stroke-width=".3" stroke-opacity="1.0" filling="0" d="M12.3 12.8 L12.3 12.8 C12.8 12.3 13.4 11.7 14.1 11.5 L14.1 11.5"></path> <path fill="none" stroke="black" stroke-width=".3" stroke-opacity="1.0" filling="0" d="M9.9 14.2 L9.9 14.2 C9.7 14.3 9.6 14.4 9.5 14.5 L7.2 14.5 C7.0 14.4 6.7 14.3 6.7 14.0 C6.7 13.7 7.0 13.6 7.2 13.4 L9.4 13.4"></path> <path fill="none" stroke="black" stroke-width=".3" stroke-opacity="1.0" filling="0" d="M14.3 14.2 L14.3 14.2 C12.4 13.1 10.8 13.1 9.4 14.2 L7.2 14.2"></path> <path fill="none" stroke="black" stroke-width=".3" stroke-opacity="1.0" filling="0" d="M7.1 15.9 L7.1 15.9 C7.4 16.2 8.2 16.4 8.2 16.8 C8.2 17.3 7.6 17.7 7.1 17.7 C6.7 17.7 6.1 17.3 6.1 16.8 C6.1 16.4 6.9 16.2 7.1 15.9 L7.1 15.9"></path> <path fill="none" stroke="black" stroke-width=".3" stroke-opacity="1.0" filling="0" d="M14.3 15.9 L14.3 15.9 C14.6 16.2 15.4 16.4 15.4 16.8 C15.4 17.3 14.7 17.7 14.3 17.7 C13.9 17.7 13.4 17.3 13.4 16.8 C13.4 16.4 14.0 16.2 14.3 15.9 L14.3 15.9"></path></svg>