<svg xmlns="http://www.w3.org/2000/svg" viewBox="0 0 24 24"><path fill="none" stroke="black" stroke-width=".3" stroke-opacity="1.0" filling="0" d="M12.6 8.5 L12.6 8.5 C13.0 8.7 13.4 8.7 13.6 8.9 C13.9 9.3 13.5 9.8 13.6 10.3 L12.3 10.4 L12.3 10.4 C10.8 11.5 10.1 12.6 10.1 13.9 C10.1 15.3 10.6 16.5 11.6 17.9 L11.2 18.5 C9.1 16.8 7.7 15.0 7.6 12.2 L8.5 11.8 C8.7 12.2 8.9 12.7 9.3 12.9 C10.2 13.6 12.0 13.9 12.8 12.7 C14.2 10.3 11.5 8.8 10.3 10.9 L10.3 10.9 C10.2 10.1 10.3 9.3 10.3 8.5 L10.3 8.5 C10.9 8.4 11.7 8.4 12.6 8.5 L12.6 8.5"></path></svg>