<svg xmlns="http://www.w3.org/2000/svg" viewBox="0 0 24 24"><path fill="none" stroke="black" stroke-width=".3" stroke-opacity="1.0" filling="0" d="M10.0 5.2 L10.0 5.2 C11.6 5.4 12.8 5.4 14.0 6.3 L14.0 6.3 C15.0 6.7 16.0 7.0 16.8 7.5 L16.8 7.5 C19.0 8.9 19.0 10.3 19.0 12.6 L19.0 12.6 C18.0 12.9 17.0 13.2 16.0 13.3 L16.0 13.3 C17.3 13.7 18.7 14.1 19.9 14.6 L19.9 14.6 C18.8 16.5 17.6 17.7 15.5 18.4 C13.9 18.9 12.5 19.1 10.9 19.0 C9.4 19.0 8.0 18.8 6.5 18.6 L6.5 18.6 C5.9 17.4 5.3 16.2 4.7 15.0 L4.7 15.0 C5.9 15.1 7.1 15.1 8.3 15.2 L8.3 15.2 C7.9 14.9 7.5 14.7 7.2 14.4 L7.2 14.4 C6.0 14.4 4.8 14.3 3.6 14.1 L3.6 14.1 C4.6 13.4 5.5 12.8 6.3 12.1 L6.3 12.1 C6.5 11.5 6.6 11.0 6.8 10.4 L6.8 10.4 C6.6 9.9 6.5 9.3 6.3 8.8 L6.3 8.8 C6.8 8.2 7.4 7.7 8.1 7.3 L8.1 7.3 C8.9 6.9 9.6 6.5 10.2 6.3 L10.2 6.3 C9.1 6.0 9.0 5.7 10.0 5.2 L10.0 5.2"></path> <path fill="none" stroke="black" stroke-width=".3" stroke-opacity="1.0" filling="0" d="M10.0 6.2 L10.0 6.2 C11.2 6.5 12.4 6.6 13.4 7.4 C14.1 7.9 14.6 8.9 14.8 9.8 C15.1 11.1 14.7 12.5 13.7 13.4 C13.2 13.9 12.4 14.0 11.7 14.4 C9.6 15.5 9.0 17.0 6.8 17.7 L6.8 17.7 C6.3 16.7 5.8 15.7 5.2 14.8 L5.2 14.8 C6.1 14.8 7.0 14.8 7.9 14.8 L7.9 14.8 C7.2 14.4 6.5 14.0 5.8 13.6 L5.8 13.6 C6.4 13.4 7.2 13.3 7.9 13.1 L7.9 13.1 C7.9 12.0 7.8 10.8 7.9 9.7 L7.9 9.7 C7.2 9.5 6.5 9.3 5.8 9.0 L5.8 9.0 C6.5 8.4 7.2 7.8 7.9 7.3 L7.9 7.3 C8.6 6.9 9.4 6.5 10.0 6.2 L10.0 6.2"></path></svg>